<svg xmlns="http://www.w3.org/2000/svg" width="400" height="408.25">
  <path style="fill:#dc1c5c;fill-rule:evenodd;stroke:none;fill-opacity:1" d="M65.38 2.16C28.95 2.16 0 34.56 0 65.13v283.02c.38 29.73 48.2 57.53 65.06 57.5 38.1 0 232.08-.1 334.94-.05v-66.39c-60.25-.16-208.84-.16-217.62-.17-1.3 0-1.61-.71-1.6-1.42.04-10.9.07-55.99.07-66.68 0-.69-.88-1.51-1.58-1.51h-59.9c-20.55 0-37.22-26.6-23.11-48.33l73.16-112.66c11.35-17.48 45.08-18.14 56.87 0l73.16 112.66c14.01 21.58-2.72 48.33-25.86 48.33h-57.31s-1.77-.04-1.78 1.43c-.04 9.3 0 35.37 0 36.24 0 .86.73 1.25 1.78 1.25 17.98 0 59.72-.01 89.36.02 29.63.03 75.34-.02 90.07-.02V65.13c0-30.57-29.6-62.97-71.05-62.97H65.38Z"/>
</svg>
